<?xml version="1.0" standalone="no"?>
<!DOCTYPE svg PUBLIC "-//W3C//DTD SVG 20010904//EN"
 "http://www.w3.org/TR/2001/REC-SVG-20010904/DTD/svg10.dtd">
<svg version="1.0" xmlns="http://www.w3.org/2000/svg"
 width="800.000000pt" height="800.000000pt" viewBox="0 0 800.000000 800.000000"
 preserveAspectRatio="xMidYMid meet">
<metadata>
Created by potrace 1.15, written by Peter Selinger 2001-2017
</metadata>
<g transform="translate(0.000000,800.000000) scale(0.100000,-0.100000)"
fill="#000000" stroke="none">
<path d="M4335 7994 c-53 -7 -135 -27 -135 -33 0 -3 -21 -5 -47 -4 -247 9
-442 -2 -466 -26 -7 -7 1 -15 24 -25 47 -20 180 -48 215 -45 16 1 40 1 54 0
l25 -2 -25 -14 c-23 -13 -18 -14 63 -15 51 0 87 4 87 10 0 6 -4 10 -10 10 -5
0 -10 5 -10 10 0 6 10 10 23 10 12 0 43 7 70 15 47 14 47 14 77 -15 33 -32 80
-41 80 -15 0 9 -7 18 -15 21 -26 10 -16 22 25 29 22 4 40 11 40 16 0 6 35 8
83 6 104 -5 120 1 68 25 -23 10 -40 22 -37 26 2 4 -12 8 -32 9 -21 1 -57 4
-82 6 -25 3 -58 3 -75 1z"/>
<path d="M3173 7921 c-32 -20 -67 -43 -77 -53 -11 -10 -25 -18 -32 -18 -7 0
-17 -6 -21 -13 -5 -8 -54 -22 -115 -32 -89 -15 -108 -21 -108 -36 0 -24 56
-55 115 -64 27 -4 63 -14 79 -22 27 -14 31 -14 41 1 7 9 17 16 23 16 14 0 48
35 73 75 24 38 24 53 1 31 -18 -15 -20 -15 -35 2 -10 10 -17 21 -17 24 0 10
84 42 102 39 9 -1 31 5 47 14 19 9 31 11 31 5 0 -6 5 -8 11 -4 8 5 4 12 -10
23 -13 10 -20 23 -16 32 10 26 -31 17 -92 -20z"/>
<path d="M4667 7913 c-22 -12 -21 -12 11 -23 17 -7 32 -16 32 -20 0 -5 19 -11
43 -15 67 -11 136 -33 173 -56 24 -15 44 -19 64 -15 29 5 51 -8 28 -17 -7 -3
15 -6 49 -6 47 -1 80 -9 140 -35 43 -19 93 -37 111 -41 18 -4 39 -13 47 -21
11 -11 22 -13 47 -6 l33 9 -25 11 -25 11 28 0 c15 1 27 -3 27 -8 0 -14 60 -31
85 -25 26 6 139 -22 173 -44 12 -8 25 -12 28 -9 11 11 -6 26 -43 38 -50 16
-103 48 -103 62 0 12 -69 40 -172 71 -32 9 -60 20 -62 25 -8 13 -68 0 -62 -14
3 -9 -14 -12 -70 -11 -63 1 -74 4 -74 19 0 9 4 17 9 17 13 0 9 67 -4 79 -6 5
-44 12 -85 14 -41 3 -100 8 -130 12 -99 12 -250 11 -273 -2z"/>
<path d="M3327 7873 c-4 -3 -7 -17 -7 -30 0 -16 6 -23 20 -23 13 0 22 -9 26
-25 5 -19 -2 -32 -31 -62 -20 -21 -56 -60 -80 -87 -24 -27 -48 -45 -54 -42 -8
5 -8 13 0 27 6 12 8 23 5 26 -9 9 -26 -8 -26 -26 0 -10 -6 -24 -14 -30 -16
-13 -9 -60 10 -68 20 -7 17 -40 -4 -55 -11 -7 -22 -25 -25 -40 -4 -16 -10 -39
-13 -53 -5 -18 -2 -25 9 -25 12 0 13 -6 7 -27 -23 -72 -29 -128 -16 -141 11
-11 19 -8 49 17 19 17 40 31 45 31 6 0 27 14 47 31 29 26 38 29 50 19 13 -11
22 -8 53 17 20 16 45 44 54 63 9 18 21 36 25 39 5 3 30 34 57 69 26 34 51 62
57 62 13 0 12 -4 -22 -59 -34 -55 -34 -90 0 -71 11 5 23 19 26 30 8 25 35 26
35 1 0 -15 5 -18 23 -14 21 4 21 4 3 -11 -46 -38 -142 -123 -160 -143 -12 -13
-41 -42 -66 -65 -155 -147 -166 -162 -107 -151 73 14 153 45 179 70 20 19 31
23 40 15 10 -8 29 -3 73 19 33 16 66 29 73 29 8 0 58 27 113 60 54 33 103 60
108 60 6 0 35 11 66 24 30 14 55 20 55 15 0 -5 8 -9 18 -7 12 2 16 -3 14 -15
-3 -16 7 -18 113 -16 116 1 157 -5 94 -15 -19 -3 -90 -8 -159 -11 -84 -4 -132
-11 -147 -20 -12 -8 -31 -15 -42 -15 -19 0 -74 -29 -157 -83 -21 -14 -56 -29
-77 -32 -41 -8 -60 -25 -28 -25 11 0 40 6 63 14 66 21 127 34 198 42 l65 7
-25 -20 c-14 -11 -45 -23 -69 -27 -54 -8 -211 -53 -264 -75 -21 -8 -36 -20
-33 -27 6 -15 -68 -48 -159 -69 -102 -24 -102 -24 -85 -35 8 -5 22 -5 32 1 11
6 31 9 45 7 23 -3 17 -8 -45 -42 -72 -39 -88 -56 -54 -56 28 0 -35 -37 -77
-45 -19 -4 -49 -14 -66 -23 -16 -9 -34 -15 -39 -14 -5 2 -16 0 -25 -3 -12 -5
-13 -8 -2 -14 8 -5 -3 -8 -30 -8 -24 0 -54 -3 -66 -7 -41 -15 -24 10 20 29 45
19 128 75 111 75 -5 0 -18 -6 -29 -14 -11 -7 -51 -25 -89 -41 -76 -30 -123
-60 -131 -84 -3 -10 -17 -16 -37 -17 -18 -1 -34 -6 -36 -13 -2 -6 -10 -11 -18
-11 -11 0 -44 -47 -44 -64 0 -10 54 18 127 66 64 42 75 47 99 37 23 -8 25 -12
13 -23 -8 -7 -39 -23 -69 -35 -70 -29 -154 -82 -143 -90 22 -15 7 -54 -32 -84
-22 -18 -48 -42 -58 -54 -10 -13 -27 -23 -38 -23 -20 0 -20 1 -2 31 10 17 32
45 50 63 24 24 31 38 26 54 -5 21 -7 22 -23 7 -10 -9 -21 -26 -24 -38 -6 -22
-62 -67 -84 -67 -15 0 -16 26 -2 35 6 3 10 11 10 16 0 5 -11 2 -25 -7 -14 -9
-25 -14 -25 -12 0 15 48 100 75 133 38 48 65 106 65 144 0 14 9 41 20 59 11
18 20 40 20 50 0 9 12 37 26 62 23 41 24 43 3 25 -27 -25 -75 -94 -107 -154
-13 -26 -36 -59 -50 -74 -15 -16 -39 -52 -53 -80 -15 -31 -32 -52 -41 -51 -9
1 -26 -17 -39 -40 l-22 -41 22 20 c19 16 24 17 31 5 14 -22 12 -31 -15 -78
-14 -24 -23 -47 -21 -51 3 -4 -4 -18 -15 -31 l-20 -25 6 33 c8 39 -9 43 -23 5
-22 -61 -23 -65 -7 -59 9 3 15 0 15 -8 0 -8 -6 -17 -12 -19 -10 -4 -10 -6 0
-6 6 -1 12 -5 12 -10 0 -5 -8 -7 -18 -4 -12 3 -22 -4 -30 -22 -17 -36 -15 -53
3 -29 14 18 14 18 15 1 0 -11 -8 -21 -19 -24 -23 -6 -42 -64 -29 -87 7 -12 4
-21 -10 -34 -11 -9 -28 -39 -37 -65 -17 -45 -31 -64 -40 -55 -4 4 7 53 37 163
6 22 12 58 13 81 1 22 17 69 35 105 18 35 36 72 41 81 11 22 12 68 2 68 -5 0
-17 -19 -28 -43 -10 -23 -31 -58 -46 -77 -14 -19 -34 -51 -44 -70 -23 -44 -42
-63 -50 -50 -12 20 -23 9 -45 -42 -12 -29 -30 -71 -40 -93 -10 -22 -25 -61
-34 -86 -9 -25 -23 -54 -31 -65 -12 -17 -13 -15 -4 21 5 22 11 73 14 114 2 47
9 79 19 90 9 10 16 26 16 37 0 10 7 28 15 38 8 11 15 25 15 32 0 7 5 25 12 41
l11 28 6 -30 c7 -30 7 -30 35 25 25 49 76 187 76 205 0 4 -7 2 -15 -5 -8 -7
-15 -21 -15 -31 0 -11 -5 -19 -11 -19 -6 0 -8 8 -5 18 2 9 7 27 11 40 3 12 2
22 -3 22 -11 0 -58 -111 -70 -167 -5 -23 -19 -55 -31 -71 -11 -17 -21 -33 -21
-36 0 -4 -13 -35 -29 -69 -16 -34 -39 -93 -51 -130 -13 -38 -29 -71 -36 -74
-7 -2 -9 -13 -6 -25 4 -17 2 -20 -11 -15 -10 4 -17 3 -17 -2 0 -4 -16 -25 -35
-45 l-35 -37 0 29 c0 16 7 35 15 42 9 7 14 19 11 27 -7 18 4 43 19 43 7 0 16
13 20 29 3 16 15 39 25 51 20 23 55 106 65 157 l6 28 -19 -22 c-10 -12 -45
-68 -77 -125 -32 -57 -72 -125 -90 -153 -18 -27 -45 -72 -60 -100 -36 -68 -49
-79 -40 -36 7 31 6 33 -14 28 -26 -6 -40 18 -22 36 13 13 15 41 2 33 -18 -11
-68 -112 -75 -150 -4 -21 -18 -48 -30 -60 -13 -11 -38 -50 -56 -86 -36 -73
-38 -75 -45 -68 -3 3 1 37 10 77 19 90 19 107 3 93 -7 -5 -32 -12 -55 -14 -36
-3 -43 -1 -43 14 0 41 -28 10 -66 -74 -25 -54 -44 -74 -44 -45 0 12 43 125 61
159 13 25 11 32 -5 19 -8 -7 -17 -23 -20 -36 -11 -42 -48 -96 -62 -91 -7 3
-16 1 -19 -4 -9 -15 -45 -12 -45 4 0 7 7 33 15 57 14 39 14 45 1 55 -13 9 -11
16 17 46 46 51 61 78 49 90 -6 6 -12 6 -16 -1 -17 -27 -24 -7 -10 26 14 32 14
35 1 25 -8 -7 -21 -27 -28 -44 -7 -18 -21 -40 -31 -50 -9 -9 -26 -35 -38 -57
-18 -37 -19 -41 -3 -49 14 -8 12 -14 -17 -51 -18 -22 -38 -41 -44 -41 -14 0
-56 -73 -56 -98 0 -10 -7 -27 -15 -38 -8 -10 -15 -32 -15 -49 0 -37 -10 -75
-19 -75 -13 0 -32 109 -23 127 5 10 12 38 16 63 4 25 24 97 46 160 52 154 67
226 74 345 6 99 6 99 -9 55 -8 -25 -15 -74 -15 -109 0 -55 -8 -85 -55 -200
-67 -168 -84 -262 -80 -450 7 -295 17 -437 37 -526 11 -49 26 -128 33 -175 8
-47 25 -139 39 -205 14 -66 32 -156 41 -200 49 -234 57 -265 70 -265 13 0 27
-28 24 -46 -8 -44 0 -51 67 -58 37 -4 76 -12 88 -18 30 -15 163 -153 181 -188
9 -17 22 -30 31 -30 8 0 19 -11 24 -25 5 -14 16 -28 24 -31 8 -3 17 -21 21
-40 5 -29 9 -34 26 -29 16 5 20 1 26 -25 5 -28 9 -31 35 -28 29 5 29 4 23 -34
-7 -41 13 -78 41 -78 7 0 16 -17 20 -37 8 -45 22 -66 40 -59 8 3 17 0 21 -7 5
-7 17 -17 28 -23 13 -7 21 -24 23 -47 3 -31 11 -41 50 -68 44 -29 46 -30 59
-12 7 10 17 23 22 30 17 19 50 244 40 270 -5 13 -12 23 -17 23 -10 0 -2 69 9
76 5 3 9 13 9 22 0 9 7 29 14 44 8 16 15 36 14 45 0 10 9 42 20 71 17 44 18
53 6 48 -21 -8 -9 27 27 81 39 56 36 65 -6 20 -19 -20 -35 -34 -35 -29 0 10
65 109 86 129 8 9 29 43 45 76 16 33 38 69 49 79 11 10 20 25 20 34 0 8 7 17
15 20 8 4 15 11 16 18 1 26 66 100 98 111 18 6 44 23 56 37 12 14 37 33 54 42
17 9 31 23 31 32 0 11 -4 12 -19 4 -26 -13 -31 -13 -31 4 0 19 46 88 101 149
33 38 47 48 66 44 19 -3 24 1 29 22 11 52 36 121 44 126 15 9 50 -18 50 -38 0
-15 5 -17 35 -11 22 4 41 2 50 -6 20 -16 54 -3 65 26 7 18 17 24 40 24 17 0
39 9 51 21 l22 22 -31 13 c-37 15 -72 49 -72 69 0 9 -7 31 -14 50 -16 39 -5
46 21 15 10 -11 23 -20 30 -20 7 0 13 -4 13 -9 0 -12 93 -65 141 -80 19 -6 64
-13 100 -16 35 -2 88 -11 118 -19 30 -8 63 -11 74 -7 16 6 11 10 -27 25 -50
19 -57 31 -25 41 26 9 99 73 99 88 0 6 -10 2 -22 -9 -43 -38 -77 -54 -116 -54
-41 0 -72 23 -72 53 0 10 -8 17 -20 17 -38 0 -137 254 -114 291 3 5 14 9 25 9
10 0 19 5 19 11 0 8 17 10 58 5 31 -4 67 -7 80 -7 12 1 25 -6 28 -14 4 -8 10
-13 14 -10 4 2 33 7 64 9 53 5 126 37 126 56 0 16 34 20 56 5 20 -13 22 -23
22 -80 0 -46 7 -82 23 -122 21 -51 24 -55 29 -33 4 15 13 24 23 24 14 -2 17 7
17 45 0 25 7 54 14 64 7 9 11 28 9 41 -3 16 5 38 26 66 34 47 45 94 12 51 -31
-40 -43 -17 -22 39 16 41 16 50 5 50 -8 0 -14 7 -14 15 0 8 7 15 15 15 8 0 15
-4 15 -10 0 -17 22 -11 57 16 40 30 52 25 33 -14 -8 -15 -16 -31 -18 -37 -3
-5 24 18 59 51 35 34 78 68 94 75 20 10 31 23 33 40 2 20 9 27 25 27 45 0 62
10 82 46 12 21 33 45 48 54 15 9 25 22 23 29 -3 6 8 16 25 22 47 16 36 33 -16
25 -68 -10 -55 10 23 35 73 23 112 27 112 11 0 -5 7 -10 15 -10 8 0 15 4 15
10 0 10 52 40 70 40 20 0 9 -18 -15 -24 -14 -4 -25 -11 -25 -17 0 -6 3 -8 8
-6 35 20 186 77 204 77 11 0 18 10 20 28 3 25 6 27 43 24 22 -2 49 -12 61 -23
11 -10 24 -19 30 -19 13 1 55 37 53 47 -1 4 3 21 10 37 10 24 15 27 37 22 23
-6 26 -4 21 13 -5 22 7 29 18 11 3 -5 11 -10 17 -10 7 0 7 4 0 13 -6 7 -7 18
-3 26 7 11 10 11 17 0 5 -8 18 -22 30 -32 20 -17 21 -17 22 18 1 27 -3 35 -16
35 -16 1 -15 2 1 11 19 11 52 5 43 -9 -3 -4 6 -16 20 -27 21 -16 24 -24 19
-59 -5 -38 -4 -40 10 -22 8 11 15 23 15 27 0 11 43 19 54 10 6 -5 31 -12 56
-16 67 -11 119 -40 113 -64 -7 -26 8 -32 48 -21 28 8 37 7 59 -14 22 -20 109
-66 126 -66 4 0 15 -9 24 -20 10 -12 22 -19 26 -18 18 6 102 -34 106 -50 3 -9
22 -26 44 -37 21 -11 53 -35 71 -52 18 -18 37 -33 43 -33 5 0 7 -6 4 -13 -3
-8 6 -25 20 -38 14 -13 26 -28 26 -32 0 -5 14 -22 30 -37 17 -15 30 -38 30
-50 0 -14 5 -20 13 -17 6 2 19 -11 28 -29 13 -28 14 -34 3 -34 -8 0 -14 -7
-14 -15 0 -8 7 -15 15 -15 18 0 37 -34 29 -54 -3 -9 -13 -16 -21 -16 -9 0 -13
-6 -10 -14 3 -7 -1 -25 -8 -40 -11 -21 -12 -26 0 -26 7 0 15 6 18 14 9 23 49
8 42 -15 -4 -11 -2 -19 5 -19 7 0 25 -10 42 -21 24 -17 29 -27 26 -50 -3 -16
-1 -29 4 -29 4 0 8 6 8 14 0 8 2 21 5 28 3 8 -6 26 -21 41 -22 22 -24 29 -14
42 13 16 32 21 27 7 -1 -4 8 -19 21 -32 13 -14 21 -33 18 -42 -3 -12 2 -18 14
-18 10 0 23 -7 30 -15 7 -8 16 -12 21 -10 4 3 7 -6 6 -21 -1 -15 4 -29 11 -31
6 -3 12 3 12 14 0 15 2 16 10 3 6 -10 4 -20 -7 -32 -14 -16 -14 -18 -1 -18 24
0 45 -31 72 -101 27 -73 31 -126 9 -150 -12 -14 -12 -19 0 -30 7 -8 14 -39 14
-73 1 -32 6 -63 12 -69 17 -17 13 -30 -5 -23 -14 5 -15 4 -5 -8 7 -8 9 -20 5
-27 -4 -7 3 -19 17 -29 18 -14 23 -28 24 -63 0 -30 4 -43 12 -40 19 7 53 -16
53 -37 0 -11 -4 -20 -10 -20 -18 0 -10 -22 10 -27 19 -5 29 -35 35 -101 1 -15
4 -34 8 -42 3 -8 13 -73 22 -145 9 -71 18 -140 21 -152 4 -19 0 -23 -21 -23
-16 0 -25 -6 -25 -15 0 -13 4 -14 21 -5 25 14 28 11 34 -26 2 -16 15 -85 30
-154 14 -69 25 -147 24 -175 -4 -84 0 -135 11 -135 15 0 48 122 55 202 4 48 2
96 -8 139 -7 36 -13 73 -11 82 1 9 7 64 14 122 11 107 25 144 90 235 16 22 20
65 29 315 7 160 14 372 16 473 3 101 8 188 11 193 9 15 -6 109 -20 121 -15 14
-7 72 19 138 19 50 22 140 12 375 -9 205 -11 218 -51 355 l-36 125 31 43 c42
58 47 110 20 183 -12 31 -30 67 -41 79 -11 12 -22 32 -26 43 -13 42 -77 126
-115 152 -36 26 -38 29 -24 48 24 34 18 71 -16 106 -21 23 -29 39 -25 54 3 14
-5 32 -27 58 -65 76 -112 144 -123 179 -7 19 -22 69 -34 110 -30 104 -76 156
-149 170 -70 13 -216 13 -264 -1 -28 -7 -42 -7 -52 1 -11 9 -12 7 -8 -12 8
-30 44 -78 58 -78 6 0 21 -11 33 -25 12 -14 25 -25 29 -25 5 0 15 -13 25 -29
9 -16 31 -37 49 -47 33 -17 68 -51 69 -68 0 -5 -8 -14 -17 -21 -14 -11 -15
-16 -5 -28 10 -11 10 -17 2 -22 -7 -4 -10 -16 -7 -26 7 -26 -21 -24 -108 7
-73 26 -163 50 -227 61 -41 6 -52 -8 -21 -26 27 -15 9 -23 -23 -10 -50 20
-158 38 -168 28 -6 -6 -3 -9 8 -9 13 0 17 -5 13 -20 -3 -13 0 -20 9 -20 8 0
14 5 14 11 0 6 5 7 13 2 13 -8 18 -9 61 -11 58 -3 10 -23 -65 -28 -98 -6 -139
-13 -139 -24 0 -6 10 -10 22 -10 57 0 -40 -40 -106 -44 -23 -1 -37 -14 -78
-74 -28 -40 -48 -75 -45 -78 3 -4 38 9 77 29 38 19 70 32 70 28 0 -11 -17 -33
-22 -29 -9 5 -88 -42 -88 -53 0 -5 -8 -9 -17 -9 -52 0 -126 -91 -148 -183 -7
-27 -22 -43 -31 -34 -9 8 35 168 62 226 26 57 46 123 45 153 0 9 9 20 19 23
26 8 72 64 68 84 -2 9 -10 16 -18 17 -35 2 -41 5 -35 14 3 6 17 10 31 10 13 0
24 5 24 10 0 6 -7 10 -15 10 -8 0 -15 8 -15 19 0 22 59 41 106 34 19 -3 35 1
43 11 17 20 6 36 -24 36 -13 0 -30 3 -38 6 -13 5 -13 8 3 24 15 15 24 16 57 7
22 -6 48 -7 58 -3 16 6 17 8 1 24 -9 10 -16 31 -16 47 0 29 0 28 27 -13 40
-61 74 -55 36 6 -22 36 -43 52 -68 52 -11 0 -26 9 -33 20 -7 11 -20 20 -30 20
-9 0 -30 15 -47 34 -30 34 -75 57 -75 37 0 -24 21 -61 35 -61 8 0 15 -2 15 -5
0 -11 -26 -50 -37 -58 -7 -4 -13 -17 -13 -29 0 -28 -21 -98 -30 -98 -4 0 -5
29 -3 65 4 75 -8 105 -40 105 -21 0 -22 4 -22 61 0 46 -4 63 -16 70 -9 4 -19
6 -22 3 -11 -12 -47 8 -47 25 0 23 -66 81 -92 81 -10 0 -18 -6 -18 -14 0 -9
-8 -12 -25 -8 -14 2 -25 11 -25 18 0 8 -4 14 -10 14 -5 0 -10 -7 -10 -15 0
-19 -40 -99 -46 -93 -2 3 3 21 11 42 14 33 14 38 -1 61 -11 17 -25 25 -45 25
-15 0 -31 5 -35 12 -4 6 -3 8 2 5 6 -3 16 -2 24 3 11 7 8 11 -13 19 -34 13
-87 14 -105 2 -15 -9 13 -20 58 -22 24 -1 23 -1 -5 -10 -45 -13 -105 0 -115
25 -5 12 -9 15 -9 9 -1 -16 -51 -17 -51 -2 0 9 -16 7 -57 -8 -6 -3 -13 6 -15
19 -2 19 -10 23 -38 25 l-35 2 33 -14 c33 -15 43 -35 18 -35 -7 0 -21 -12 -31
-26 -12 -18 -20 -23 -29 -15 -9 8 -15 2 -25 -24 -7 -19 -16 -35 -21 -35 -5 0
-7 7 -4 15 6 14 0 33 -30 108 -6 15 -14 27 -19 27 -4 0 -7 8 -5 18 2 13 -4 17
-27 18 -31 2 -77 -37 -116 -96 -19 -28 -30 -23 -33 12 -1 19 -6 23 -23 20 -26
-5 -31 -30 -8 -38 32 -13 3 -67 -37 -69 -4 0 -13 -6 -19 -12 -7 -7 -21 -13
-31 -13 -10 0 -18 -7 -18 -15 0 -10 -11 -15 -35 -15 -35 0 -47 13 -21 23 10 4
12 14 8 29 -5 21 -4 22 12 9 24 -20 29 -8 12 33 -19 45 -36 46 -36 4 0 -32
-15 -67 -23 -58 -2 3 -9 14 -14 24 -10 18 -11 18 -28 -7 -10 -16 -22 -24 -32
-20 -12 5 -14 1 -8 -18 10 -31 7 -30 43 -20 50 15 38 -2 -20 -29 -29 -13 -55
-25 -58 -27 -3 -2 -6 15 -7 37 -2 39 -22 93 -23 60 0 -17 -40 -47 -40 -30 0 5
-4 10 -10 10 -5 0 -10 -7 -10 -15 0 -22 -47 -42 -62 -27 -17 17 -36 15 -70 -9
-35 -26 -48 -19 -19 10 42 42 5 150 -50 151 -9 0 -24 9 -33 19 -13 14 -38 21
-92 26 -41 4 -74 11 -74 16 0 5 -8 8 -17 6 -34 -4 -28 18 10 37 30 14 36 21
26 32 -15 18 -39 18 -79 -2 -30 -16 -33 -16 -42 0 -9 16 -29 21 -41 9z m1457
-379 c14 -35 4 -52 -46 -85 -29 -19 -59 -46 -66 -61 -7 -16 -17 -28 -23 -28
-5 0 -9 -4 -9 -10 0 -5 11 -10 25 -10 22 0 26 4 24 26 0 3 17 15 37 26 28 15
39 17 44 7 6 -8 24 -10 60 -6 48 6 51 5 45 -14 -6 -18 -4 -20 17 -15 l23 7
-25 -18 c-29 -22 -71 -23 -86 -4 -13 17 -44 8 -44 -14 0 -8 8 -15 18 -15 9 0
-7 -12 -35 -28 -29 -15 -62 -35 -73 -45 -21 -17 -28 -57 -10 -57 6 0 10 4 10
9 0 5 7 11 15 15 12 4 11 -3 -5 -34 -11 -22 -25 -40 -30 -40 -6 0 -10 -9 -10
-19 0 -11 -11 -55 -24 -98 -13 -43 -27 -91 -31 -108 -7 -27 -8 -28 -15 -10 -5
11 -9 39 -9 62 -1 23 -6 45 -12 48 -6 4 -8 14 -5 22 4 9 1 22 -5 29 -13 16
-53 19 -44 4 8 -13 -16 -13 -49 0 -21 8 -26 6 -26 -6 0 -8 7 -17 15 -20 8 -4
15 -11 15 -16 0 -6 -11 -3 -25 6 -13 9 -31 16 -40 16 -8 0 -15 4 -15 9 0 12
-103 43 -156 46 -24 2 -57 6 -72 10 -46 10 -215 -23 -278 -54 -49 -24 -76 -51
-50 -51 32 0 14 -27 -69 -104 -47 -42 -85 -83 -85 -90 0 -6 -24 -38 -52 -70
-29 -32 -71 -93 -93 -134 -42 -80 -71 -107 -59 -55 3 15 17 47 31 71 28 49 20
54 -20 12 -31 -32 -50 -39 -41 -15 4 9 0 15 -9 15 -9 0 -19 -9 -22 -20 -3 -11
-15 -20 -25 -20 -31 0 -163 -68 -182 -94 -3 -5 -4 -15 -1 -22 2 -7 -15 -23
-39 -38 -30 -18 -37 -26 -23 -26 11 0 31 6 45 13 14 8 41 17 60 21 32 6 33 5
15 -8 -11 -9 -24 -16 -30 -16 -5 0 -52 -20 -103 -45 -51 -25 -97 -45 -101 -45
-4 0 -63 -25 -130 -55 -67 -30 -131 -55 -142 -55 -10 0 -42 -9 -71 -20 -28
-11 -54 -17 -57 -14 -10 10 40 43 82 55 29 7 56 26 87 59 25 26 58 50 74 54
15 4 47 15 70 26 22 10 52 22 66 25 51 15 68 45 25 45 -14 0 -25 -4 -25 -10 0
-5 -12 -13 -27 -16 -16 -4 -32 -10 -38 -14 -5 -4 -35 -11 -65 -15 -57 -7 -61
3 -9 29 46 23 34 36 -31 33 -62 -3 -88 6 -47 17 12 3 34 6 50 6 28 0 37 15 15
23 -17 6 61 87 84 87 9 0 18 4 20 9 2 4 21 11 43 15 l40 7 -33 -28 c-23 -20
-31 -34 -26 -46 5 -13 1 -17 -19 -17 -14 0 -29 -5 -32 -11 -4 -6 -14 -8 -22
-4 -13 4 -14 3 -3 -10 22 -26 87 -13 120 25 11 12 63 30 89 30 15 0 31 3 35 8
4 4 27 7 50 7 29 0 66 13 120 40 66 34 82 47 104 88 22 39 24 49 13 56 -11 7
-8 12 12 22 14 8 49 45 79 83 55 73 232 219 278 231 14 3 55 22 93 41 37 19
79 34 95 34 15 0 35 7 45 14 16 12 16 14 2 20 -24 9 -10 23 23 24 42 1 181 28
232 46 50 16 173 24 208 12 27 -9 20 -26 -11 -26 -12 -1 -40 -9 -62 -20 -22
-11 -52 -19 -67 -20 -31 0 -34 -8 -15 -32 17 -22 77 -29 107 -12 14 7 35 13
47 14 30 0 93 39 93 56 0 8 -11 14 -27 15 l-28 1 33 14 c17 8 32 18 32 23 0 5
3 17 7 27 5 14 2 16 -19 11 -15 -4 -33 -10 -42 -13 -28 -11 -17 11 12 23 15 7
42 22 60 33 29 18 31 23 21 41 -9 17 -18 20 -43 16 -21 -3 -38 1 -54 13 l-22
18 30 7 c22 5 38 1 59 -14 16 -12 39 -21 50 -21 22 0 61 32 61 50 0 6 6 10 14
10 7 0 16 9 19 20 6 24 32 27 41 4z m296 -128 c0 -8 -9 -35 -20 -61 -11 -26
-20 -63 -20 -83 -1 -52 -16 -114 -32 -123 -15 -9 -19 -217 -5 -304 4 -27 3
-45 -1 -40 -41 46 -49 295 -13 430 12 44 19 91 16 105 -4 19 0 27 17 35 13 6
27 20 33 33 11 25 25 29 25 8z m-2502 -2491 c18 -25 35 -52 38 -60 10 -25 -16
-75 -38 -75 -18 0 -20 4 -14 40 8 54 -4 51 -69 -12 -29 -29 -63 -59 -74 -65
-18 -11 -17 -6 9 44 17 32 30 62 30 69 0 12 70 104 79 104 3 -1 21 -21 39 -45z"/>
<path d="M2745 7731 c-11 -10 -51 -36 -90 -56 -38 -20 -91 -52 -116 -71 -26
-19 -52 -34 -58 -34 -6 0 -11 -4 -11 -10 0 -9 -51 -40 -66 -40 -3 0 -4 9 -1
20 4 14 0 20 -12 20 -22 0 -63 -29 -56 -40 5 -8 -46 -30 -74 -30 -9 0 -32 -17
-51 -36 -19 -20 -46 -42 -60 -49 -25 -13 -70 -59 -70 -71 0 -9 -39 -43 -82
-70 -39 -25 -52 -48 -20 -37 20 7 105 69 178 130 28 24 67 49 87 58 20 8 52
26 73 40 20 14 49 25 64 25 41 0 87 19 93 38 2 9 31 30 63 46 32 16 76 40 96
53 43 26 49 28 46 11 -2 -8 6 -12 20 -10 18 3 22 -2 22 -22 0 -14 -6 -26 -12
-27 -7 -1 -40 -2 -73 -4 -56 -2 -135 -30 -149 -54 -4 -6 20 -8 59 -6 36 2 65
1 65 -3 0 -18 -53 -62 -75 -62 -17 0 -23 -4 -19 -14 3 -8 -20 -56 -51 -107
-42 -69 -53 -94 -43 -100 10 -7 10 -11 0 -21 -6 -6 -12 -18 -12 -24 0 -7 -16
-29 -35 -50 -19 -20 -35 -45 -35 -55 0 -10 -5 -21 -11 -25 -6 -3 -8 -15 -5
-27 3 -12 -3 -30 -15 -45 -10 -14 -19 -31 -19 -38 0 -8 -4 -14 -10 -14 -5 0
-10 9 -10 19 0 11 5 23 10 26 6 3 10 11 10 18 0 17 -35 -22 -62 -69 -131 -230
-149 -267 -172 -348 -27 -92 -34 -145 -15 -116 36 56 120 205 138 245 27 60
36 54 16 -11 -18 -58 -17 -54 -7 -54 11 0 53 76 95 175 19 44 53 109 76 144
22 35 41 73 41 83 0 11 7 26 15 34 8 9 17 27 20 42 3 15 15 45 25 67 11 22 20
44 20 48 0 15 63 61 84 62 15 0 24 10 33 37 7 21 26 50 44 66 21 18 32 38 34
60 2 37 28 61 65 62 41 0 109 56 110 90 0 33 -22 91 -46 120 -30 35 -33 36
-59 11z"/>
<path d="M2791 7387 c-12 -19 -21 -41 -21 -50 0 -9 -5 -19 -11 -23 -6 -3 -19
-26 -29 -50 -11 -24 -24 -44 -29 -44 -6 0 -23 -19 -40 -42 -16 -24 -46 -60
-66 -81 -19 -21 -44 -55 -54 -75 -11 -20 -35 -59 -55 -86 -41 -58 -38 -77 5
-26 23 27 37 35 62 35 27 0 32 4 35 27 2 16 18 44 36 63 18 19 31 37 28 40 -3
3 0 5 7 5 8 0 31 19 52 43 49 54 51 29 3 -38 -19 -28 -44 -66 -53 -85 -10 -19
-44 -80 -76 -135 -62 -107 -115 -209 -115 -221 0 -4 9 1 20 11 11 10 20 24 20
30 0 7 7 18 15 25 8 7 15 23 15 36 0 14 18 41 45 70 25 25 45 54 45 65 0 10 9
23 20 29 11 6 20 16 20 22 0 7 -5 6 -15 -2 -12 -10 -15 -10 -15 3 0 9 9 18 19
22 11 3 40 25 65 48 25 23 64 58 86 77 52 45 88 106 84 145 -1 17 -3 36 -3 44
-1 11 -4 11 -16 1 -19 -16 -34 -5 -17 12 21 21 13 64 -17 102 l-29 36 -21 -33z"/>
<path d="M1865 7140 c-4 -6 -10 -8 -14 -6 -4 3 -17 -3 -28 -13 -30 -29 -79
-51 -110 -51 -23 0 -47 -20 -126 -102 -84 -88 -239 -262 -286 -321 -8 -10 -12
-20 -9 -22 2 -3 29 25 59 62 168 206 249 276 400 345 77 36 93 47 110 80 17
34 20 54 4 28z"/>
<path d="M5882 4233 c3 -24 0 -28 -20 -25 -30 4 -61 -23 -55 -47 3 -11 0 -22
-7 -26 -15 -9 -52 25 -46 41 3 8 0 11 -8 8 -9 -3 -16 6 -20 26 -7 35 -29 37
-34 2 -2 -11 -14 -28 -28 -36 -22 -15 -24 -15 -24 0 0 12 -7 15 -27 11 -41 -7
-97 -30 -105 -43 -4 -7 -24 -15 -44 -19 -22 -4 -38 -13 -41 -24 -7 -26 -76
-54 -113 -46 -26 6 -32 3 -51 -29 -11 -20 -27 -36 -35 -36 -8 0 -14 -9 -14
-21 0 -13 -4 -18 -12 -13 -6 4 -8 3 -5 -3 3 -5 -3 -26 -13 -46 -11 -20 -20
-50 -20 -66 0 -31 59 -218 110 -351 39 -103 70 -206 70 -234 0 -14 5 -26 12
-28 7 -3 13 -18 14 -34 1 -26 4 -29 37 -29 19 0 39 -3 43 -7 20 -21 35 -7 34
30 -4 74 -1 80 34 97 38 18 56 14 56 -14 0 -24 45 -42 88 -37 26 4 32 2 28
-10 -6 -16 2 -18 23 -5 9 6 10 11 2 15 -6 4 -11 14 -11 22 0 16 30 14 52 -3
27 -21 80 -34 94 -22 13 11 19 5 14 -16 -1 -5 8 -1 19 9 12 11 21 27 21 38 0
19 15 24 25 8 9 -15 45 -12 45 4 0 17 44 29 72 21 12 -4 27 0 40 11 18 17 20
17 29 2 6 -10 17 -14 29 -11 21 6 22 30 1 26 -15 -4 -14 6 4 23 17 17 35 11
35 -12 0 -9 6 -14 13 -11 7 2 11 16 9 33 -3 25 -2 27 10 13 18 -22 68 -34 68
-16 0 7 -5 18 -12 25 -16 16 10 43 45 47 48 6 117 59 117 91 0 7 7 14 16 14 9
0 18 9 21 20 3 11 12 20 19 20 8 0 13 5 11 12 -1 6 15 15 35 20 47 12 69 37
75 85 3 21 8 54 12 74 6 25 4 39 -4 45 -7 5 -15 32 -18 60 -5 46 -3 53 14 57
13 4 19 13 18 34 0 15 -3 22 -6 16 -11 -28 -21 -11 -12 19 11 41 11 47 0 29
-7 -11 -11 -5 -16 22 -4 20 -12 37 -17 37 -7 0 -6 5 1 13 11 14 3 55 -18 96
-15 26 -31 27 -31 2 0 -23 -16 -36 -25 -21 -3 5 -17 10 -30 10 -14 0 -29 8
-35 20 -15 28 -69 55 -83 41 -7 -7 -7 -14 1 -24 15 -18 5 -27 -30 -27 -31 0
-39 -23 -12 -38 14 -8 12 -10 -10 -16 -33 -8 -99 26 -106 56 -7 28 -21 34
-108 49 -84 14 -107 5 -83 -32 22 -36 -3 -46 -38 -16 -17 14 -40 28 -51 32
-11 3 -20 13 -20 21 0 8 -5 14 -10 14 -6 0 -9 -12 -8 -27z"/>
<path d="M4305 4209 c-27 -5 -75 -9 -105 -9 -110 2 -201 -14 -218 -37 -10 -12
-30 -27 -46 -33 -17 -6 -26 -15 -23 -24 10 -26 -14 -35 -79 -29 -54 5 -64 3
-64 -9 0 -18 -17 -26 -80 -38 -102 -20 -281 -66 -310 -80 -8 -4 -22 -20 -31
-36 -9 -16 -22 -28 -28 -26 -7 1 -24 -4 -39 -12 -15 -8 -36 -18 -47 -22 -18
-6 -18 -8 -2 -11 9 -3 17 -13 17 -24 0 -11 -4 -17 -10 -14 -5 3 -10 1 -10 -4
0 -6 -11 -11 -24 -11 -32 0 -44 -20 -17 -27 34 -9 24 -22 -14 -18 -38 3 -47
-13 -20 -35 22 -18 19 -27 -15 -47 -45 -26 -37 -33 29 -27 72 8 85 -5 42 -45
-17 -16 -31 -39 -31 -51 0 -23 1 -23 88 -15 111 10 235 11 290 2 32 -6 42 -4
42 7 0 36 35 41 273 38 85 -1 127 -6 127 -13 0 -6 -7 -9 -15 -5 -9 3 -15 0
-15 -10 0 -20 48 -38 65 -24 16 13 24 2 35 -46 9 -38 0 -44 -58 -44 -20 0 -49
-6 -63 -14 -15 -7 -43 -12 -65 -9 -56 6 -73 5 -126 -8 -27 -6 -48 -16 -48 -21
0 -6 7 -8 14 -5 8 3 30 -1 48 -10 61 -31 305 -28 433 6 25 6 41 7 43 1 2 -6
13 -3 25 5 25 17 57 20 57 4 0 -6 8 -9 18 -7 11 2 17 13 17 28 0 17 6 26 20
28 11 2 27 12 36 21 22 23 3 50 -39 54 -38 4 -62 23 -62 48 0 16 8 19 44 19
47 0 62 11 68 50 3 23 7 25 66 26 34 1 65 -2 68 -7 6 -10 54 10 54 23 0 4 10
8 21 8 23 0 59 35 59 57 0 7 7 16 15 19 10 4 13 13 10 25 -4 12 -1 21 10 25
11 5 13 10 5 19 -8 9 -8 15 0 20 13 8 40 72 40 96 0 33 -22 67 -47 73 -35 9
-69 46 -52 57 9 5 4 13 -19 26 -18 10 -32 23 -32 30 0 16 -35 34 -53 27 -8 -3
-25 8 -40 25 -31 38 -37 38 -37 5 l0 -26 -32 24 c-30 23 -57 35 -98 43 -8 1
-37 -2 -65 -6z m-588 -302 c21 -15 31 -27 23 -27 -13 0 -13 -1 0 -10 11 -7 7
-10 -17 -10 -17 0 -33 5 -35 10 -4 14 -68 -11 -68 -26 0 -6 -7 -17 -15 -24
-12 -10 -18 -10 -32 1 -11 10 -14 10 -9 2 5 -10 -5 -13 -38 -15 -25 -1 -54 -2
-63 -2 -23 -1 -28 33 -9 59 12 17 18 18 34 8 16 -9 24 -9 38 2 11 8 31 15 47
15 32 0 34 6 6 28 -19 16 -17 17 40 16 49 0 67 -5 98 -27z"/>
<path d="M1206 3722 c-4 -10 9 -66 28 -123 18 -58 37 -120 41 -137 3 -18 13
-32 20 -32 8 0 11 7 8 18 -2 10 5 26 16 36 12 11 21 16 21 12 0 -15 27 20 33
44 4 14 14 34 22 44 13 18 19 18 67 7 32 -7 62 -22 77 -37 21 -22 90 -64 105
-64 26 0 -40 56 -205 175 -91 65 -115 75 -179 75 -38 0 -50 -4 -54 -18z"/>
<path d="M1722 3337 c-35 -20 -95 -117 -72 -117 19 0 10 -55 -10 -68 -11 -7
-20 -18 -20 -26 0 -24 37 -6 62 30 25 37 69 47 121 29 41 -14 49 6 26 67 -35
95 -56 113 -107 85z"/>
<path d="M6730 2965 c-7 -9 -19 -14 -26 -11 -12 5 -34 -47 -34 -80 0 -7 -7
-14 -15 -18 -8 -3 -15 -17 -15 -31 0 -14 -4 -25 -9 -25 -5 0 -12 -13 -16 -30
-5 -23 -12 -30 -30 -30 -13 0 -31 -10 -39 -21 -9 -13 -21 -19 -30 -16 -20 8
-36 -21 -36 -62 0 -20 -5 -31 -14 -31 -7 0 -21 -16 -30 -35 -9 -19 -23 -38
-30 -42 -8 -4 -15 -17 -17 -28 -3 -12 -14 -21 -27 -23 -12 -2 -29 -16 -37 -33
-9 -16 -21 -29 -27 -29 -9 0 -9 -3 0 -12 18 -18 16 -62 -3 -54 -10 4 -15 -1
-15 -14 0 -11 -5 -20 -11 -20 -7 0 -9 11 -6 30 8 37 0 60 -22 60 -26 0 -38
-13 -46 -48 -6 -28 -3 -33 17 -41 20 -9 19 -10 -14 -10 -33 -1 -37 -4 -35 -23
2 -20 -3 -23 -31 -24 -29 -1 -61 -14 -34 -14 7 0 12 -5 12 -11 0 -6 -7 -8 -16
-5 -9 4 -23 1 -30 -5 -19 -15 -18 0 1 21 23 25 -2 53 -49 54 -24 1 -35 5 -32
13 5 13 -23 26 -45 21 -7 -2 -18 7 -24 20 -7 15 -18 22 -37 22 -16 0 -28 5
-28 10 0 6 -5 10 -11 10 -7 0 -32 10 -57 22 l-45 23 -15 -23 c-18 -28 -32 -29
-25 -1 5 18 2 19 -23 13 -16 -4 -35 -12 -43 -17 -21 -17 -44 -17 -62 -1 -15
13 -17 13 -22 -1 -4 -8 -15 -15 -26 -15 -11 0 -26 -8 -33 -17 -7 -10 -32 -31
-55 -47 -24 -16 -43 -34 -43 -42 0 -7 -21 -24 -47 -38 -36 -21 -48 -24 -55
-14 -6 11 -10 10 -16 0 -5 -7 -35 -15 -68 -18 -32 -3 -75 -10 -94 -15 -32 -10
-44 -7 -105 21 -39 18 -101 47 -140 65 -106 49 -212 85 -252 85 -23 0 -48 -9
-69 -25 -18 -14 -44 -29 -58 -35 -37 -14 -32 -33 14 -64 87 -57 229 -106 309
-106 23 0 41 -5 41 -11 0 -5 4 -8 8 -5 10 6 106 -24 149 -47 53 -28 119 -184
90 -213 -4 -4 -7 -2 -7 5 0 7 -5 9 -10 6 -6 -4 -8 -15 -5 -25 5 -15 -2 -22
-27 -33 -40 -17 -61 -40 -56 -63 3 -20 55 -38 64 -23 4 6 10 7 17 0 15 -11 87
-10 87 2 0 4 9 5 20 2 14 -5 20 -2 20 9 0 9 5 16 10 16 6 0 10 -6 10 -12 0 -7
10 -26 23 -42 l23 -28 -30 -30 c-25 -25 -33 -28 -53 -19 -25 11 -48 6 -76 -17
-22 -19 -120 -18 -167 2 -30 12 -36 12 -64 -5 -27 -17 -51 -19 -181 -19 -199
0 -644 -17 -672 -25 -13 -4 -23 -12 -23 -18 0 -5 -7 -15 -17 -22 -15 -11 -14
-14 6 -34 15 -15 28 -20 39 -16 9 4 116 9 237 11 198 3 236 1 374 -21 84 -14
158 -28 163 -31 17 -11 248 -34 339 -34 96 0 113 -9 98 -49 -6 -14 -11 -28
-12 -31 -1 -3 -13 -4 -26 -2 -17 2 -22 -1 -18 -12 3 -8 -1 -20 -8 -26 -17 -14
-9 -34 11 -26 7 3 16 1 19 -4 9 -14 63 -3 101 20 17 11 34 17 37 14 3 -3 16 3
28 15 22 20 88 45 97 36 3 -2 12 4 21 14 22 26 84 36 101 16 16 -19 36 -19 44
1 3 8 2 13 -3 9 -5 -3 -19 -1 -31 3 l-21 8 20 24 c17 22 20 23 26 8 11 -27 37
-23 33 6 -1 13 3 31 11 40 16 19 61 22 61 4 0 -9 3 -9 8 -2 4 5 23 16 42 24
46 19 123 97 139 140 16 42 25 110 15 110 -4 0 -12 -8 -19 -17 -12 -16 -14
-16 -38 0 -15 9 -34 17 -43 17 -16 0 -16 1 -1 18 10 11 14 26 10 41 -4 16 -1
26 11 33 24 13 21 42 -4 35 -11 -3 -20 -1 -20 4 0 5 5 9 11 9 14 0 0 43 -17
53 -17 10 -18 59 -2 75 9 9 10 15 2 20 -7 4 -13 16 -15 26 -2 11 -11 22 -19
24 -13 5 -13 3 -1 -11 12 -15 11 -17 -3 -17 -9 0 -16 5 -16 10 0 6 -11 8 -25
4 -33 -8 -32 9 3 27 15 8 33 20 41 27 10 9 17 10 24 3 23 -23 26 -9 7 29 -30
59 -27 75 21 89 47 14 70 3 62 -29 -4 -15 0 -20 16 -20 12 0 24 -7 27 -15 5
-12 9 -13 21 -3 11 9 16 9 23 -2 4 -7 6 -19 3 -27 -3 -7 1 -13 10 -13 18 0 97
-75 97 -93 0 -7 4 -6 10 3 5 9 5 19 0 24 -4 4 -6 15 -3 22 3 8 0 14 -6 14 -6
0 -11 5 -11 11 0 7 10 9 25 5 14 -3 37 -9 53 -12 15 -4 35 -13 44 -21 15 -14
19 -12 36 17 l20 32 26 -29 c14 -15 26 -31 26 -35 0 -5 5 -8 11 -8 7 0 9 10 6
26 -3 19 -1 24 10 20 8 -3 17 -6 19 -6 2 0 4 -18 4 -39 0 -40 20 -71 44 -71 8
0 19 -7 26 -15 10 -12 10 -18 0 -30 -7 -8 -9 -15 -4 -15 5 0 1 -5 -8 -11 -10
-5 -18 -16 -18 -24 0 -8 8 -19 18 -24 10 -6 12 -11 4 -11 -8 0 -10 -5 -5 -12
17 -27 11 -66 -11 -73 -18 -6 -19 -8 -3 -12 17 -5 22 -30 11 -69 -3 -12 -21
-30 -40 -40 -19 -10 -34 -24 -34 -31 0 -7 -4 -13 -9 -13 -5 0 -12 -9 -16 -20
-4 -11 -20 -23 -38 -28 -24 -6 -37 -19 -52 -50 -11 -23 -25 -42 -32 -42 -7 0
-10 -7 -7 -15 4 -9 -1 -18 -12 -22 -25 -9 -43 -34 -37 -49 3 -8 -2 -11 -15 -7
-12 3 -28 -4 -41 -18 -20 -21 -20 -24 -5 -29 12 -5 -1 -13 -42 -28 -58 -21
-72 -22 -106 -8 -22 10 -38 0 -38 -25 0 -10 -7 -19 -15 -19 -8 0 -15 -4 -15
-10 0 -5 -6 -10 -14 -10 -17 0 -25 -34 -28 -107 0 -29 -4 -53 -8 -53 -11 0
-40 -75 -40 -104 0 -14 7 -29 15 -32 26 -10 16 -29 -25 -47 -41 -17 -54 -40
-22 -36 32 3 42 -1 42 -16 0 -9 -9 -15 -21 -15 -18 0 -20 -4 -15 -27 4 -17 3
-23 -2 -15 -12 18 -34 -9 -36 -46 -1 -15 -9 -41 -19 -56 -10 -15 -17 -39 -16
-54 3 -35 -40 -123 -63 -130 -10 -2 -18 -13 -18 -23 0 -10 -9 -23 -20 -29 -11
-6 -20 -17 -20 -25 0 -8 -9 -15 -20 -15 -13 0 -22 -9 -26 -26 -5 -19 -12 -24
-25 -21 -13 3 -19 -1 -21 -17 -2 -12 -9 -20 -18 -17 -8 1 -29 5 -47 6 -18 2
-37 6 -43 10 -6 4 -17 2 -24 -4 -8 -7 -20 -10 -27 -9 -8 2 -13 -4 -11 -13 1
-9 -4 -19 -13 -23 -8 -3 -15 -15 -15 -26 0 -11 -4 -20 -10 -20 -5 0 -10 5 -10
10 0 6 -12 15 -26 20 -22 9 -29 7 -46 -15 -19 -24 -21 -24 -55 -10 -31 13 -34
13 -29 0 8 -21 -13 -19 -22 3 -4 9 -18 18 -32 19 -71 6 -103 4 -109 -6 -4 -6
-15 -9 -25 -5 -12 5 -19 0 -23 -16 -4 -16 -8 -18 -14 -8 -7 11 -9 11 -9 -1 0
-10 -10 -12 -39 -7 -33 5 -39 3 -44 -14 -6 -22 -50 -28 -77 -10 -16 10 -15 12
15 28 20 11 20 11 -1 12 -36 0 -79 -53 -51 -63 7 -2 -13 -4 -43 -2 -30 1 -66
6 -80 12 -16 7 -29 7 -37 1 -7 -6 -14 -5 -18 2 -3 6 -10 8 -15 5 -5 -3 -29 -9
-55 -14 -41 -8 -47 -6 -57 13 -11 20 -11 20 -18 1 -6 -17 -8 -16 -21 10 -8 17
-21 31 -29 31 -8 1 -19 3 -25 4 -18 4 -50 -2 -62 -12 -7 -6 -38 -8 -72 -5 -48
5 -60 3 -65 -10 -6 -14 -9 -14 -26 2 -15 14 -23 16 -32 7 -8 -8 -7 -13 5 -18
9 -3 17 -13 17 -20 0 -11 -11 -14 -47 -10 -27 3 -51 5 -55 5 -5 1 -8 13 -8 27
0 40 -24 23 -34 -23 -9 -45 -28 -56 -77 -46 -18 3 -29 1 -29 -5 0 -14 17 -25
60 -38 29 -8 37 -7 47 5 11 14 12 13 13 -5 0 -17 13 -24 88 -42 212 -55 207
-54 750 -59 l513 -5 94 47 c69 34 123 72 207 144 62 54 123 113 136 130 12 17
66 80 120 140 355 398 561 679 700 956 55 111 167 530 192 720 6 44 12 91 15
105 2 14 7 111 9 215 3 105 8 206 10 225 7 46 17 300 12 300 -2 0 -9 -7 -16
-15z"/>
<path d="M5410 1210 c0 -5 -11 -10 -24 -10 -13 0 -31 -11 -42 -25 -16 -22 -21
-23 -30 -10 -6 8 -24 15 -40 15 -87 1 -132 -2 -161 -11 -18 -6 -59 -12 -90
-13 -32 -2 -66 -6 -75 -11 -13 -5 -20 -1 -27 16 -5 13 -10 19 -10 12 -1 -6
-10 -15 -21 -18 -11 -3 -20 -15 -20 -26 0 -10 -9 -28 -20 -39 -18 -18 -19 -23
-7 -48 8 -15 12 -33 9 -41 -3 -10 3 -12 29 -9 21 3 43 0 56 -9 12 -8 31 -12
43 -8 12 4 20 2 20 -5 0 -6 4 -9 8 -6 5 3 15 -6 22 -20 8 -13 19 -23 26 -20 9
3 11 -1 7 -11 -5 -12 -3 -14 7 -8 10 6 12 0 6 -33 -6 -40 -5 -42 18 -42 30 0
76 -20 76 -32 0 -5 5 -6 11 -2 6 3 15 0 20 -7 4 -8 14 -14 21 -15 34 -3 38 -5
38 -25 0 -18 4 -20 26 -15 18 5 32 2 44 -9 12 -11 20 -13 25 -6 3 6 16 9 28 6
28 -6 69 27 61 49 -4 11 -1 16 10 16 9 0 16 5 16 11 0 6 -6 9 -14 6 -24 -9
-27 5 -4 21 15 11 23 12 26 4 2 -8 8 -8 23 1 24 15 24 24 2 30 -11 3 -7 5 10
6 15 0 27 6 27 11 0 6 8 10 18 11 13 0 14 2 2 6 -8 3 -21 13 -28 22 -8 10 -15
12 -20 5 -12 -18 -52 -15 -52 4 0 10 -9 23 -20 30 -16 10 -27 9 -56 -3 -50
-20 -59 -19 -60 10 -1 13 3 23 9 22 5 -1 14 14 19 33 5 19 18 42 29 52 10 9
19 21 19 26 0 5 9 21 21 36 16 20 26 25 43 20 17 -5 15 0 -13 30 -38 39 -41
41 -41 26z"/>
<path d="M3310 541 c0 -5 5 -13 10 -16 6 -4 8 -10 5 -15 -3 -5 -1 -11 5 -15
18 -11 11 -54 -12 -66 l-21 -11 24 -19 c13 -10 39 -26 58 -35 28 -13 35 -14
42 -3 15 24 33 -4 20 -30 -10 -18 -9 -21 8 -21 11 0 26 -7 35 -15 21 -21 26
-19 24 13 -2 34 -15 52 -34 45 -9 -3 -14 2 -14 16 0 12 -4 21 -9 21 -5 0 -13
9 -16 21 -5 16 -9 18 -21 8 -12 -10 -13 -9 -8 5 3 9 1 16 -5 16 -6 0 -11 6
-11 13 0 7 -10 17 -22 22 -14 6 -25 22 -28 39 -5 27 -30 50 -30 27z"/>
</g>
</svg>
